<?xml version="1.0" encoding="iso-8859-1"?>
<!-- Generator: Adobe Illustrator 18.0.0, SVG Export Plug-In . SVG Version: 6.00 Build 0)  -->
<!DOCTYPE svg PUBLIC "-//W3C//DTD SVG 1.1//EN" "http://www.w3.org/Graphics/SVG/1.1/DTD/svg11.dtd">
<svg version="1.1" id="Capa_1" xmlns="http://www.w3.org/2000/svg" xmlns:xlink="http://www.w3.org/1999/xlink" x="0px" y="0px"
	 viewBox="0 0 493.242 493.242" style="enable-background:new 0 0 493.242 493.242;" xml:space="preserve">
<g id="XMLID_522_">
	<path id="XMLID_525_" d="M24.765,122.795h49.53v6.191c0,7.982,6.466,14.445,14.447,14.445h98.028
		c7.982,0,14.446-6.463,14.446-14.445v-6.191h267.26c13.679,0,24.765-11.094,24.765-24.766c0-13.672-11.085-24.764-24.765-24.764
		h-267.26v-6.193c0-7.979-6.465-14.445-14.446-14.445H88.743c-7.981,0-14.447,6.467-14.447,14.445v6.193h-49.53
		C11.085,73.265,0,84.357,0,98.029C0,111.701,11.085,122.795,24.765,122.795z"/>
	<path id="XMLID_524_" d="M468.477,221.855h-93.902v-6.191c0-7.98-6.466-14.445-14.447-14.445h-98.029
		c-7.981,0-14.446,6.465-14.446,14.445v6.191H24.765C11.085,221.855,0,232.949,0,246.621c0,13.674,11.085,24.766,24.765,24.766
		h222.888v6.191c0,7.98,6.465,14.445,14.446,14.445h98.029c7.981,0,14.447-6.465,14.447-14.445v-6.191h93.902
		c13.679,0,24.765-11.092,24.765-24.766C493.242,232.949,482.156,221.855,468.477,221.855z"/>
	<path id="XMLID_523_" d="M468.477,370.449H264.679v-6.193c0-7.98-6.467-14.445-14.446-14.445h-98.029
		c-7.981,0-14.447,6.465-14.447,14.445v6.193H24.765C11.085,370.449,0,381.541,0,395.213c0,13.672,11.085,24.766,24.765,24.766
		h112.992v6.191c0,7.98,6.465,14.445,14.447,14.445h98.029c7.98,0,14.446-6.465,14.446-14.445v-6.191h203.798
		c13.679,0,24.765-11.094,24.765-24.766C493.242,381.541,482.156,370.449,468.477,370.449z"/>
</g>
<g>
</g>
<g>
</g>
<g>
</g>
<g>
</g>
<g>
</g>
<g>
</g>
<g>
</g>
<g>
</g>
<g>
</g>
<g>
</g>
<g>
</g>
<g>
</g>
<g>
</g>
<g>
</g>
<g>
</g>
</svg>
